<?xml version="1.0" encoding="UTF-8" standalone="no"?>
<!DOCTYPE svg PUBLIC "-//W3C//DTD SVG 1.1//EN" "http://www.w3.org/Graphics/SVG/1.1/DTD/svg11.dtd">
<svg width="100%" height="100%" viewBox="0 0 3000 1000" version="1.1" xmlns="http://www.w3.org/2000/svg" xmlns:xlink="http://www.w3.org/1999/xlink" xml:space="preserve" xmlns:serif="http://www.serif.com/" style="fill-rule:evenodd;clip-rule:evenodd;stroke-linejoin:round;stroke-miterlimit:2;">
    <rect x="-1" y="0" width="3002" height="1000" style="fill:rgb(212,223,138);"/>
    <rect x="1000.01" y="0" width="1000" height="1000" style="fill:rgb(58,194,216);"/>
    <circle cx="500" cy="500" r="387" style="fill:white;"/>
    <circle cx="1500" cy="501.001" r="387" style="fill:rgb(34,45,63);"/>
    <circle cx="2501.6" cy="500" r="387" style="fill:white;stroke:rgb(213,213,213);stroke-width:1px;"/>
    <g transform="matrix(29.1667,0,0,29.1667,2506.11,500.556)">
        <g transform="matrix(1,0,0,1,-12,-12)">
            <circle cx="12" cy="12" r="10" style="fill:none;stroke:rgb(34,45,63);stroke-width:1px;stroke-linecap:round;stroke-miterlimit:4;"/>
            <path d="M12,2C6.698,7.567 6.698,16.433 12,22C17.302,16.433 17.302,7.567 12,2" style="fill:none;fill-rule:nonzero;stroke:rgb(34,45,63);stroke-width:1px;stroke-linecap:round;stroke-miterlimit:4;"/>
            <path d="M2,12L22,12" style="fill:none;fill-rule:nonzero;stroke:rgb(34,45,63);stroke-width:1px;stroke-linecap:round;stroke-miterlimit:4;"/>
        </g>
    </g>
    <g transform="matrix(34.9916,0,0,34.9916,1080.12,78.9525)">
        <path d="M11.017,2.814C11.105,2.343 11.52,1.998 12,1.998C12.48,1.998 12.895,2.343 12.983,2.814L14.034,8.372C14.186,9.179 14.821,9.814 15.628,9.966L21.186,11.017C21.657,11.105 22.002,11.52 22.002,12C22.002,12.48 21.657,12.895 21.186,12.983L15.628,14.034C14.821,14.186 14.186,14.821 14.034,15.628L12.983,21.186C12.895,21.657 12.48,22.002 12,22.002C11.52,22.002 11.105,21.657 11.017,21.186L9.966,15.628C9.814,14.821 9.179,14.186 8.372,14.034L2.814,12.983C2.343,12.895 1.998,12.48 1.998,12C1.998,11.52 2.343,11.105 2.814,11.017L8.372,9.966C9.179,9.814 9.814,9.179 9.966,8.372L11.017,2.814Z" style="fill:none;fill-rule:nonzero;stroke:rgb(244,249,244);stroke-width:0.63px;stroke-linecap:round;stroke-miterlimit:4;"/>
    </g>
    <g transform="matrix(25,0,0,25,512.29,506.76)">
        <g transform="matrix(1,0,0,1,-12,-12)">
            <path d="M22,17C22,18.097 21.097,19 20,19L6.828,19C6.298,19 5.789,19.211 5.414,19.586L3.212,21.788C3.079,21.921 2.898,21.996 2.71,21.996C2.321,21.996 2,21.675 2,21.286L2,5C2,3.903 2.903,3 4,3L20,3C21.097,3 22,3.903 22,5L22,17Z" style="fill:none;fill-rule:nonzero;stroke:rgb(34,45,63);stroke-width:0.85px;stroke-linecap:round;stroke-miterlimit:4;"/>
            <g transform="matrix(0.6,0,0,1,3.39659,-1.735)">
                <path d="M2,12L22,12" style="fill:none;fill-rule:nonzero;stroke:rgb(34,45,63);stroke-width:1.03px;stroke-linecap:round;stroke-miterlimit:4;"/>
            </g>
            <g transform="matrix(0.5,0,0,1,3.62051,0.290761)">
                <path d="M2,12L22,12" style="fill:none;fill-rule:nonzero;stroke:rgb(34,45,63);stroke-width:1.08px;stroke-linecap:round;stroke-miterlimit:4;"/>
            </g>
            <g transform="matrix(0.55,0,0,1,3.50562,2.29885)">
                <path d="M2,12L22,12" style="fill:none;fill-rule:nonzero;stroke:rgb(34,45,63);stroke-width:1.05px;stroke-linecap:round;stroke-miterlimit:4;"/>
            </g>
            <g transform="matrix(0.716301,0,0,1,3.18614,-3.71757)">
                <path d="M2,12L22,12" style="fill:none;fill-rule:nonzero;stroke:rgb(34,45,63);stroke-width:0.98px;stroke-linecap:round;stroke-miterlimit:4;"/>
            </g>
        </g>
    </g>
</svg>
