<?xml version="1.0" encoding="UTF-8" standalone="no"?>
<!DOCTYPE svg PUBLIC "-//W3C//DTD SVG 1.1//EN" "http://www.w3.org/Graphics/SVG/1.1/DTD/svg11.dtd">
<svg width="100%" height="100%" viewBox="0 0 1000 1000" version="1.1" xmlns="http://www.w3.org/2000/svg" xmlns:xlink="http://www.w3.org/1999/xlink" xml:space="preserve" xmlns:serif="http://www.serif.com/" style="fill-rule:evenodd;clip-rule:evenodd;stroke-linecap:round;stroke-linejoin:round;">
    <g id="Layer_6">
        <path d="M999.709,1000L999.709,0.459C726.056,3.231 505.072,225.919 505.072,500.229C505.072,774.538 726.056,997.229 999.709,1000Z" style="fill:rgb(59,194,215);fill-rule:nonzero;"/>
    </g>
    <g id="Layer_17">
        <path d="M1001.16,650.115C1000.68,650.115 1000.19,650.101 999.709,650.096L999.709,660.282C1000.19,660.287 1000.68,660.301 1001.16,660.301" style="fill:none;fill-rule:nonzero;"/>
        <path d="M1001.16,333.881C1000.68,333.881 1000.19,333.895 999.709,333.9L999.709,344.085C1000.19,344.081 1000.68,344.066 1001.16,344.066" style="fill:none;fill-rule:nonzero;"/>
        <path d="M1001.16,313.091C1000.68,313.091 1000.19,313.106 999.709,313.11L999.709,323.9C1000.19,323.896 1000.68,323.881 1001.16,323.881" style="fill:none;fill-rule:nonzero;"/>
        <path d="M1001.16,670.301C1000.68,670.301 1000.19,670.286 999.709,670.282L999.709,681.072C1000.19,681.076 1000.68,681.091 1001.16,681.091" style="fill:none;fill-rule:nonzero;"/>
        <path d="M1001.16,354.066C1000.68,354.066 1000.19,354.08 999.709,354.085L999.709,640.097C1000.19,640.102 1000.68,640.116 1001.16,640.116" style="fill:none;fill-rule:nonzero;"/>
        <path d="M1001.16,691.091C1000.68,691.091 1000.19,691.076 999.709,691.072L999.709,702.072C1000.19,702.076 1000.68,702.091 1001.16,702.091" style="fill:none;fill-rule:nonzero;"/>
        <path d="M1001.16,292.091C1000.68,292.091 1000.19,292.106 999.709,292.11L999.709,303.11C1000.19,303.106 1000.68,303.091 1001.16,303.091" style="fill:none;fill-rule:nonzero;"/>
        <g transform="matrix(40,0,0,40,519.575,24.0277)">
            <circle cx="12" cy="12" r="10" style="fill:none;stroke:white;stroke-width:0.6px;"/>
        </g>
        <g transform="matrix(40,0,0,40,519.575,24.0277)">
            <path d="M12,2C6.698,7.567 6.698,16.433 12,22C17.302,16.433 17.302,7.567 12,2" style="fill:none;fill-rule:nonzero;stroke:white;stroke-width:0.6px;"/>
        </g>
        <g transform="matrix(40,0,0,40,519.575,24.0277)">
            <path d="M2,12L22,12" style="fill:none;fill-rule:nonzero;stroke:white;stroke-width:0.6px;"/>
        </g>
    </g>
</svg>
